PathFileType	3	(X/Y/Z)	D:\Jess\PFP\Labelled\PA24\20251014\SRRun01.trc
DataRate	CameraRate	NumFrames	NumMarkers	Units	OrigDataRate	OrigDataStartFrame	OrigNumFrames
250.0	250.0	4	33	mm	250.0	35937	2501
Frame#	Time	C7			T10			CLAV			LSHO			RSHO			LASIS			RASIS			LPSIS			RPSIS			LILCR			RILCR			LGTR			LTHI			LLTHI			LLEP			LPSH			LLSH			LDSH			LLMAL			LTOE			L5TH			LHEE			RGTR			RTHI			RLTHI			RLEP			RPSH			RLSH			RDSH			RLMAL			RTOE			R5TH			RHEE			
		X1	Y1	Z1	X2	Y2	Z2	X3	Y3	Z3	X4	Y4	Z4	X5	Y5	Z5	X6	Y6	Z6	X7	Y7	Z7	X8	Y8	Z8	X9	Y9	Z9	X10	Y10	Z10	X11	Y11	Z11	X12	Y12	Z12	X13	Y13	Z13	X14	Y14	Z14	X15	Y15	Z15	X16	Y16	Z16	X17	Y17	Z17	X18	Y18	Z18	X19	Y19	Z19	X20	Y20	Z20	X21	Y21	Z21	X22	Y22	Z22	X23	Y23	Z23	X24	Y24	Z24	X25	Y25	Z25	X26	Y26	Z26	X27	Y27	Z27	X28	Y28	Z28	X29	Y29	Z29	X30	Y30	Z30	X31	Y31	Z31	X32	Y32	Z32	X33	Y33	Z33	

938	143.744	883.7608804686423	1440.953147433929	-936.8874985986774	873.1994055384852	1215.780914673644	-852.1179186978948	869.3195031955125	1339.481865325533	-1044.514584913044	707.0257278417258	1411.978169209824	-975.1270078054115	1023.998077435475	1398.467953006015	-1011.145033186758	749.5355883565011	991.8954972345209	-973.7572784092615	1015.945949593087	994.3112427119291	-948.2926676747767	823.3258032589092	1024.581127546836	-795.4244336685493	872.7603590251456	1026.880619077681	-789.128859193495	721.3673806292219	1057.450932616828	-931.9418754529256	1019.432134923516	1066.200928937974	-912.9307132309829	697.3308683105281	936.4544640183962	-935.6296016600821	786.6006557520335	823.618437249224	-1076.256149970412	725.69749728313	682.1759619716793	-1046.641961613722	753.9049056725328	539.1879799595096	-1124.637648417717	807.9717481919637	447.6912821364495	-1130.830513765312	743.6904121584922	397.6718282801382	-996.4071670735509	794.281100654891	286.838138977162	-967.2595173697291	758.386638751101	231.2201128527356	-858.3122681831919	757.1723218498116	102.6147131983857	-933.9670882578175	720.2270807356537	110.9555181527718	-885.5862566864064	808.9141912481647	253.3903137367857	-787.9841441665408	1050.668203937741	930.3913479181438	-871.7767406901373	984.4939120191275	742.3996735066308	-967.5521215388158	1020.026789029033	656.0282053648331	-854.4096596088351	983.0074487647664	473.8292612439472	-817.4932575207469	914.8212041349577	392.7103048305054	-825.3885272515486	964.7528844290472	317.9235903929264	-709.7992399871581	896.8681502615373	208.6824176233818	-692.6192463336141	925.8881389562493	148.6839196388325	-595.6818272301152	940.7115786282193	58.33506948989952	-707.1942902938799	969.9380223857645	50.93945947020094	-652.393347417432	870.4394614130023	131.2030951189887	-515.3874094833386	
939	143.748	884.0190100580788	1443.49325479204	-937.5739148646013	874.3021332996694	1218.234929970425	-852.8537761844359	868.1516311639435	1342.213710698664	-1044.993587604695	707.0136070966685	1414.931401717013	-973.5411667359663	1022.99849950391	1401.084036026483	-1013.27387862525	749.8922978899724	995.1908001673963	-974.3173853295883	1016.041181583594	995.8534475731199	-949.339833902094	823.2704855735036	1027.664546741782	-796.3397649978855	872.8050506397771	1029.702614117826	-790.2373214772089	721.4630696645263	1060.792111424403	-932.3749019467195	1019.296336054197	1068.076941540452	-914.6414293058399	697.0200937351096	940.310370239088	-936.7840228199423	787.2768019073502	827.561433910403	-1076.37522425381	725.893298289363	685.4070782589587	-1047.731804459275	754.4736130255387	542.38188990197	-1125.625070308005	808.4666528641005	450.7919689422378	-1134.570262047965	744.4921277910255	395.657463864891	-1001.957592926504	795.5692381414444	284.1031019997369	-976.8983795495344	760.0281199746453	224.3505834661333	-870.0448253819346	759.0034365238974	99.22673136488015	-951.1577987448366	722.1078413243933	105.3050426994186	-902.3736535179047	810.547588923502	243.6646773206882	-798.7584968701343	1050.303357317827	932.1845221285448	-872.115939001444	983.9459857704862	743.1576769982909	-965.2762633005228	1020.062764715348	658.4544288823894	-850.7186911991801	983.5111875360958	476.9629903759918	-810.5407496737407	915.7747045211327	395.510855630882	-818.0137403092422	965.5420595529669	321.5395894531952	-701.9931516118614	898.1152728897735	211.7537424244498	-684.9265972225608	926.7598663245665	151.8758569997139	-587.8364243929256	941.1952628388304	58.17736824223979	-697.3075972180783	970.1941249587867	51.60591889997144	-642.3315060318386	871.0956073558076	136.2512943362959	-507.6529759625766	
940	143.752	884.2498864358943	1446.026808934765	-938.3159306910715	875.3934758500887	1220.701907028828	-853.6207558981723	866.9923893249018	1344.9331212254	-1045.499797001387	707.0275088023521	1417.832406375528	-972.0850889130071	1021.957070729641	1403.694913750131	-1015.384161878235	750.2511757617806	998.4662707186791	-974.9059622525725	1016.093444607235	997.3749732145737	-950.4528390387833	823.1921138095515	1030.753829844781	-797.3186654850238	872.825523888114	1032.519285359053	-791.4170099751979	721.5617816656891	1064.136444874878	-932.8687160532447	1019.125976335336	1069.955425153915	-916.3407280547124	696.7202717498301	944.1680447554595	-937.9771501803095	787.9921412290986	831.4196829044769	-1076.498102400301	726.0633480133775	688.6047179055628	-1048.733377087517	755.0066187247575	545.3701403136888	-1126.334135359866	808.8889606108871	453.7631751459422	-1138.075584106007	745.284803181811	393.5374546690589	-1007.478304685533	796.8613915924244	281.3979820549365	-986.5920536461047	761.7149369867801	217.5436006293627	-882.014559683197	760.9017524490586	96.15640315920642	-968.454940013473	724.0653589830266	99.92935268958745	-919.3645375453763	812.2312191407668	233.9588064621863	-809.8952512720571	1049.946143396701	933.9817151084429	-872.5356435273271	983.5248798205408	743.9116738691821	-963.1093553606684	1020.147501991755	660.9281284086143	-847.1241980562727	984.0562047684895	480.1984275246194	-803.7503067349803	916.7901188224063	398.4253149197776	-810.8184038216052	966.3819609040186	325.2442590284384	-694.3859596133813	899.4685575449395	214.9060307774958	-677.4823705540487	927.7144688042773	155.1369367077054	-580.2433163713924	941.7193323940677	58.01228776095304	-687.510511068137	970.4728334907121	52.31828790556722	-632.362383807481	871.7994160283782	141.455376594525	-500.2391444937883	
941	143.756	884.4499815346496	1448.539575417728	-939.1061767122411	876.4675859375266	1223.168189279318	-854.415810241203	865.8426016830263	1347.63247862886	-1046.030688946743	707.0613301055738	1420.670572428639	-970.7593971328259	1020.875061605689	1406.290558809251	-1017.462063382655	750.6100377862819	1001.699471718904	-975.5170892144523	1016.101164993371	998.8702676922611	-951.6314706955727	823.0979777093488	1033.832275897267	-798.3579058027137	872.8265356010538	1035.31718537679	-792.6654923018605	721.6626825101182	1067.459261496336	-933.4120056844034	1018.920184341208	1071.833926820163	-918.0272348164833	696.4377609283433	948.0058034386726	-939.1929475781189	788.7223900625644	835.1851818287247	-1076.63631297813	726.2134122763733	691.7621559122582	-1049.637641972426	755.5041209418157	548.1399913054233	-1126.778975803715	809.241188519784	456.5936667137157	-1141.350466589741	746.0670017280163	391.3216507228643	-1012.971255005532	798.1527704968311	278.7377793808898	-996.3308225454932	763.4401203783863	210.8271019217337	-894.2123896082777	762.8635140450584	93.42883847510157	-985.8336588438632	726.0952041361229	94.85646259213607	-936.5406673661381	813.9556243507096	224.307032879969	-821.3872923950311	1049.600834995518	935.7798801597677	-873.0362824635445	983.2348223279196	744.657070663088	-961.0525907405631	1020.280474152756	663.441618600346	-843.6294791980253	984.6300152972218	483.5274025641503	-797.1216651151763	917.8539482306999	401.4437198240842	-803.8072765008671	967.2636616660819	329.0263858588129	-686.9823081885509	900.9247074991788	218.1246151329446	-670.2930405252351	928.7531832871881	158.4536548419474	-572.9083717505066	942.2821406481098	57.84333832152079	-677.8040184113981	970.7716051739302	53.08451484419371	-622.4904835000599	872.5539985572756	146.799864067704	-493.1619417447213	
